<svg xmlns="http://www.w3.org/2000/svg" xmlns:xlink="http://www.w3.org/1999/xlink" width="48" height="48" viewBox="0 0 48 48"><defs><style>.a{fill:#fff;}.b{filter:url(#a);}</style><filter id="a" x="0" y="0" width="48" height="48" filterUnits="userSpaceOnUse"><feOffset dy="3" input="SourceAlpha"/><feGaussianBlur stdDeviation="1.5" result="b"/><feFlood flood-opacity="0.251"/><feComposite operator="in" in2="b"/><feComposite in="SourceGraphic"/></filter></defs><g class="b" transform="matrix(1, 0, 0, 1, 0, 0)"><path class="a" d="M19.5,39A19.5,19.5,0,0,1,5.711,5.711,19.5,19.5,0,0,1,33.289,33.289,19.372,19.372,0,0,1,19.5,39ZM31.028,15.742c-2.617,0-4.444,1.546-4.444,3.758s1.828,3.757,4.444,3.757c2.658,0,4.444-1.563,4.444-3.889C35.472,17.2,33.686,15.742,31.028,15.742Zm-11.528,0c-2.617,0-4.444,1.546-4.444,3.758s1.828,3.757,4.444,3.757c2.658,0,4.443-1.563,4.443-3.889C23.943,17.2,22.157,15.742,19.5,15.742Zm-11.529,0c-2.616,0-4.443,1.546-4.443,3.758s1.827,3.757,4.443,3.757c2.658,0,4.444-1.563,4.444-3.889C12.415,17.2,10.629,15.742,7.97,15.742Z" transform="translate(4.5 1.5)"/></g></svg>