<?xml version="1.0" encoding="UTF-8"?>
<svg width="690px" height="214px" viewBox="0 0 690 214" version="1.1" xmlns="http://www.w3.org/2000/svg" xmlns:xlink="http://www.w3.org/1999/xlink">
    <title>编组</title>
    <defs>
        <polygon id="path-1" points="0 0 689.9997 0 689.9997 213.1186 0 213.1186"></polygon>
    </defs>
    <g id="无线产品册" stroke="none" stroke-width="1" fill="none" fill-rule="evenodd">
        <g id="编组">
            <mask id="mask-2" fill="white">
                <use xlink:href="#path-1"></use>
            </mask>
            <g id="Clip-2"></g>
            <path d="M95,111.5446 L142,111.5446 L142,64.5446 L95,64.5446 L95,111.5446 Z M142.528,51.5446 L94.472,51.5446 C87.584,51.5446 82,57.1286 82,64.0166 L82,112.0726 C82,118.9606 87.584,124.5446 94.472,124.5446 L142.528,124.5446 C149.416,124.5446 155,118.9606 155,112.0726 L155,64.0166 C155,57.1286 149.416,51.5446 142.528,51.5446 L142.528,51.5446 Z" id="Fill-1" fill="#FFFFFF" mask="url(#mask-2)"></path>
            <path d="M467,111.5446 L514,111.5446 L514,64.5446 L467,64.5446 L467,111.5446 Z M514.528,51.5446 L466.472,51.5446 C459.584,51.5446 454,57.1286 454,64.0166 L454,112.0726 C454,118.9606 459.584,124.5446 466.472,124.5446 L514.528,124.5446 C521.416,124.5446 527,118.9606 527,112.0726 L527,64.0166 C527,57.1286 521.416,51.5446 514.528,51.5446 L514.528,51.5446 Z" id="Fill-3" fill="#FFFFFF" mask="url(#mask-2)"></path>
            <polygon id="Fill-4" fill="#FFFFFF" mask="url(#mask-2)" points="61 51.5445 61 81.5445 13 81.5445 13 51.5445 0 51.5445 0 124.5445 13 124.5445 13 94.5445 61 94.5445 61 124.5445 74 124.5445 74 51.5445"></polygon>
            <polygon id="Fill-5" fill="#FFFFFF" mask="url(#mask-2)" points="266 124.5445 282 124.5445 323 51.5445 308 51.5445"></polygon>
            <path d="M366,64.5445 L366,51.5445 L353,51.5445 L344.064,51.5445 L344,51.5445 L344,51.5485 C340.271,51.5715 336.828,53.5595 334.951,56.7855 L306.594,106.6075 C303.531,113.3575 306.6,119.6075 310.048,122.0655 C312.351,123.7075 315.13,124.5445 317.958,124.5445 L366,124.5445 L366,111.5445 L319.301,111.5445 L345.699,64.5445 L366,64.5445 Z" id="Fill-6" fill="#FFFFFF" mask="url(#mask-2)"></path>
            <path d="M387,111.5445 L387,51.5445 L374,51.5445 L374,112.9595 C374,119.3575 379.187,124.5445 385.585,124.5445 L446,124.5445 L446,111.5445 L387,111.5445 Z" id="Fill-7" fill="#FFFFFF" mask="url(#mask-2)"></path>
            <path d="M596,51.5445 L596,111.5445 L549,111.5445 L549,51.5445 L536,51.5445 L536,112.0725 C536,118.9605 541.584,124.5445 548.472,124.5445 L596.528,124.5445 C603.416,124.5445 609,118.9605 609,112.0725 L609,51.5445 L596,51.5445 Z" id="Fill-8" fill="#FFFFFF" mask="url(#mask-2)"></path>
            <path d="M677.6667,111.5445 L630.6667,111.5445 L630.6667,64.5445 L642.5827,64.5445 C661.9587,64.5445 677.6667,80.2525 677.6667,99.6285 L677.6667,111.5445 Z M643.1517,51.5445 L616.9997,51.5445 L616.9997,124.5445 L689.9997,124.5445 L689.9997,98.3925 C689.9997,72.5195 669.0257,51.5445 643.1517,51.5445 L643.1517,51.5445 Z" id="Fill-9" fill="#FFFFFF" mask="url(#mask-2)"></path>
            <polygon id="Fill-10" fill="#FFFFFF" mask="url(#mask-2)" points="198 124.5446 211 124.5446 211 81.5446 198 81.5446"></polygon>
            <path d="M197.7847,51.5445 L175.9997,51.5445 L162.9997,51.5445 L162.9997,124.5445 L175.9997,124.5445 L175.9997,64.5445 L196.9187,64.5445 C216.6867,64.5445 232.7127,80.5695 232.7127,100.3385 L232.7127,124.5445 L244.9997,124.5445 L244.9997,98.7595 C244.9997,72.6835 223.8607,51.5445 197.7847,51.5445" id="Fill-11" fill="#FFFFFF" mask="url(#mask-2)"></path>
            <path d="M197.464,24.75 L197.464,38.428 C230.917,38.428 258.036,65.547 258.036,99 C258.036,99.183 258.024,99.362 258.022,99.544 L269.951,99.544 C269.952,99.362 269.964,99.183 269.964,99 C269.964,57.993 237.505,24.75 197.464,24.75" id="Fill-12" fill="#FFFFFF" mask="url(#mask-2)"></path>
            <path d="M198,0 C197.821,0 197.643,0.006 197.464,0.007 L197.464,13.014 C197.643,13.012 197.82,13 198,13 C238.028,13 271.666,40.348 281.256,77.378 L294.625,77.378 C284.76,33.102 245.249,0 198,0" id="Fill-13" fill="#FFFFFF" mask="url(#mask-2)"></path>
            <path d="M189.0025,203.4007 L197.0285,185.2287 L210.4375,185.2287 L202.4595,203.3707 L228.4435,203.3707 C230.0485,203.3707 231.3525,202.1607 231.3645,200.6607 L231.4595,189.0197 L243.7515,189.0197 L244.3845,206.4007 C244.4965,210.0797 241.3365,213.1187 237.3995,213.1187 L195.3335,213.1187 C190.3325,213.1187 186.9815,207.9757 189.0025,203.4007 L189.0025,203.4007 Z M162.3015,166.8167 L162.3015,159.4407 C162.3015,156.4857 164.8645,154.0897 168.0255,154.0897 L196.5385,154.0897 L196.5385,151.9237 L209.9475,151.9237 L209.9475,154.0897 L237.5705,154.0897 C241.0465,154.0897 243.7205,156.9627 243.2395,160.1807 L242.2875,166.5457 L229.9945,166.5457 L229.9945,161.9427 L174.9665,161.9427 L174.9665,166.8167 L162.3015,166.8167 Z M161.1505,171.8257 L179.6665,171.8257 L182.4475,165.4627 L196.3655,165.4627 L193.5335,171.8257 L244.5905,171.8257 L244.5905,181.9797 L189.2485,181.7477 L175.3895,213.1187 L161.4715,213.1187 L175.2395,181.9797 L161.1505,181.9797 L161.1505,171.8257 Z" id="Fill-14" fill="#FFFFFF" mask="url(#mask-2)"></path>
            <path d="M255.6549,182.1087 L255.6549,171.8257 L339.0949,171.8257 L339.0949,182.1087 L255.6549,182.1087 Z M257.0869,163.8377 L337.6639,163.8377 L337.6639,153.5487 L257.0869,153.5487 L257.0869,163.8377 Z" id="Fill-15" fill="#FFFFFF" mask="url(#mask-2)"></path>
            <path d="M423.7794,159.4651 L404.4114,159.4651 L404.4114,173.7881 L422.6614,173.7881 C423.4064,173.7881 423.7794,173.4281 423.7794,172.7041 L423.7794,159.4651 Z M395.7914,153.1261 L434.1594,153.1261 L434.1594,175.9281 C434.1594,179.3161 431.4314,182.0731 428.0434,182.1091 L395.7914,182.1091 L395.7914,153.1261 Z M363.9284,201.8321 L363.9284,205.6231 L418.5634,205.6231 C419.3084,205.8051 419.6814,205.4461 419.6814,204.5401 L419.6814,201.8321 L363.9284,201.8321 Z M363.9284,194.5221 L420.0534,194.5221 L420.0534,191.0021 L363.9284,191.0021 L363.9284,194.5221 Z M351.8364,184.6041 L431.7974,184.6041 L431.7974,206.7671 C431.7974,210.2751 428.9534,213.1191 425.4464,213.1191 L358.1874,213.1191 C354.6794,213.1191 351.8364,210.2751 351.8364,206.7671 L351.8364,184.6041 Z M349.9734,161.2751 L349.9734,154.3611 L355.5514,154.3611 L356.6784,151.9241 L370.4604,151.9241 L369.7164,154.3611 L393.1844,154.3611 L393.1844,161.2751 L377.5384,161.2751 L377.5384,164.7211 L393.1844,164.7211 L393.1844,171.8261 L379.0844,171.8261 L384.8704,174.9401 L393.1844,174.9401 L393.1844,182.1091 L380.1454,182.1091 L371.5784,176.9671 L363.0114,182.1091 L349.9724,182.1091 L349.9734,174.9401 L358.2874,174.9401 L364.0724,171.8261 L349.9734,171.8261 L349.9734,164.7211 L365.6184,164.7211 L365.6184,161.2751 L349.9734,161.2751 Z" id="Fill-16" fill="#FFFFFF" mask="url(#mask-2)"></path>
            <path d="M489.7375,182.8752 L500.5185,182.8752 L500.5185,188.0192 L517.1055,188.0192 C517.7015,188.0192 518.1855,187.5362 518.1855,186.9392 L518.1855,182.8752 L529.2225,182.8752 L529.2225,191.8412 C529.2225,194.0212 527.3315,195.7892 524.9995,195.7892 L500.5185,195.7892 L500.5185,202.9292 L529.2225,202.9292 L529.2225,208.5472 C529.2225,210.7252 527.3345,212.4922 525.0045,212.4942 L494.4755,212.4942 C491.8145,212.4942 489.6585,210.3322 489.666478,207.6712 L489.7375,182.8752 Z M489.7375,150.8412 L500.5185,150.8412 L500.5185,155.9852 L517.0975,156.0972 C517.6975,156.1012 518.1855,155.6162 518.1855,155.0172 L518.1855,150.5702 L529.2225,150.5702 L529.2225,159.9062 C529.2225,162.1272 527.2915,163.9252 524.9155,163.9162 L500.5185,163.8382 L500.5185,171.1002 L529.2225,171.1002 L529.2225,175.8032 C529.2225,178.0182 527.3015,179.8132 524.9325,179.8132 L494.5465,179.8132 C491.8905,179.8132 489.7375,177.6602 489.7375,175.0042 L489.7375,150.8412 Z M456.9855,194.5702 L474.1425,194.5702 L474.1425,190.2382 L456.9855,190.2382 L456.9855,194.5702 Z M456.9865,183.8752 L474.1435,183.8752 L474.1435,179.8132 L456.9865,179.8132 L456.9865,183.8752 Z M444.2915,169.2532 L444.2915,160.8592 L457.7025,150.5702 L471.6705,150.5702 L458.2895,161.4612 L474.1585,161.5422 C475.1975,161.5432 476.0455,160.7652 476.0625,159.7942 L476.1265,156.1552 L486.7575,156.1042 L486.7575,163.7622 C486.7575,166.7952 484.1275,169.2532 480.8835,169.2532 L444.2915,169.2532 Z M445.4215,212.9712 L445.4215,173.2462 L485.8895,173.2462 L485.8895,207.0812 C485.8895,210.3182 483.0815,212.9412 479.6185,212.9392 L468.6915,212.9312 L468.6915,206.0782 L472.6975,206.0302 C473.4975,206.0232 474.1425,205.4152 474.1425,204.6672 L474.1425,201.9732 L456.9865,201.9732 L456.9865,212.9712 L445.4215,212.9712 Z" id="Fill-17" fill="#FFFFFF" mask="url(#mask-2)"></path>
            <path d="M261.3606,203.4087 L270.7356,182.1087 L284.1456,182.1087 L274.8356,203.3707 L318.2296,203.3707 C319.8346,203.3707 321.1386,202.1607 321.1506,200.6607 L321.2456,189.0197 L333.5376,189.0197 L334.1706,206.4007 C334.2836,210.0797 331.1236,213.1187 327.1856,213.1187 L267.6956,213.1187 C262.6976,213.1187 259.3466,207.9837 261.3606,203.4087" id="Fill-18" fill="#FFFFFF" mask="url(#mask-2)"></path>
        </g>
    </g>
</svg>